name Walk6.mot
datacolumns 19
datarows 17
range 1.20100000 1.21700000
endheader

                time	   L_ground_force_vx	   L_ground_force_vy	   L_ground_force_vz	   L_ground_force_px	   L_ground_force_py	   L_ground_force_pz	   R_ground_force_vx	   R_ground_force_vy	   R_ground_force_vz	   R_ground_force_px	   R_ground_force_py	   R_ground_force_pz	   L_ground_torque_x	   L_ground_torque_y	   L_ground_torque_z	   R_ground_torque_x	   R_ground_torque_y	   R_ground_torque_z	
          1.20100000	          0.00000000	          0.00000000	          0.00000000	          0.00000000	          0.00000000	          0.00000000	          0.00000000	          0.00000000	          0.00000000	          0.00000000	          0.00000000	          0.00000000	          0.00000000	          0.00000000	          0.00000000	          0.00000000	          0.00000000	          0.00000000	
          1.20200000	          0.00000000	          0.00000000	          0.00000000	          0.00000000	          0.00000000	          0.00000000	          0.00000000	          0.00000000	          0.00000000	          0.00000000	          0.00000000	          0.00000000	          0.00000000	          0.00000000	          0.00000000	          0.00000000	          0.00000000	          0.00000000	
          1.20300000	          0.00000000	          0.00000000	          0.00000000	          0.00000000	          0.00000000	          0.00000000	          0.00000000	          0.00000000	          0.00000000	          0.00000000	          0.00000000	          0.00000000	          0.00000000	          0.00000000	          0.00000000	          0.00000000	          0.00000000	          0.00000000	
          1.20400000	          0.00000000	          0.00000000	          0.00000000	          0.00000000	          0.00000000	          0.00000000	          0.00000000	          0.00000000	          0.00000000	          0.00000000	          0.00000000	          0.00000000	          0.00000000	          0.00000000	          0.00000000	          0.00000000	          0.00000000	          0.00000000	
          1.20500000	          0.00000000	          0.00000000	          0.00000000	          0.00000000	          0.00000000	          0.00000000	          0.00000000	          0.00000000	          0.00000000	          0.00000000	          0.00000000	          0.00000000	          0.00000000	          0.00000000	          0.00000000	          0.00000000	          0.00000000	          0.00000000	
          1.20600000	          0.00000000	          0.00000000	          0.00000000	          0.00000000	          0.00000000	          0.00000000	          1.83202775	         16.67459668	         -3.67504760	         -0.39233099	          0.00000000	         -0.09044509	          0.00000000	          0.00000000	          0.00000000	          0.00000000	          0.01083512	          0.00000000	
          1.20700000	          0.00000000	          0.00000000	          0.00000000	          0.00000000	          0.00000000	          0.00000000	          3.29932110	         38.73366467	         -5.19659427	         -0.38886068	          0.00000000	         -0.09432010	          0.00000000	          0.00000000	          0.00000000	          0.00000000	         -0.02858232	          0.00000000	
          1.20800000	          0.00000000	          0.00000000	          0.00000000	          0.00000000	          0.00000000	          0.00000000	          5.28486044	         72.13426954	         -6.57339814	         -0.38692307	          0.00000000	         -0.09532688	          0.00000000	          0.00000000	          0.00000000	          0.00000000	         -0.07379677	          0.00000000	
          1.20900000	          0.00000000	          0.00000000	          0.00000000	          0.00000000	          0.00000000	          0.00000000	          7.87887352	        117.50811228	         -7.69149070	         -0.38577144	          0.00000000	         -0.09512760	          0.00000000	          0.00000000	          0.00000000	          0.00000000	         -0.10774795	          0.00000000	
          1.21000000	          0.00000000	          0.00000000	          0.00000000	          0.00000000	          0.00000000	          0.00000000	         11.09243678	        172.43272143	         -8.58789900	         -0.38516366	          0.00000000	         -0.09446097	          0.00000000	          0.00000000	          0.00000000	          0.00000000	         -0.11751279	          0.00000000	
          1.21100000	          0.00000000	          0.00000000	          0.00000000	          0.00000000	          0.00000000	          0.00000000	         14.70547417	        230.81757601	         -9.48386662	         -0.38490048	          0.00000000	         -0.09371555	          0.00000000	          0.00000000	          0.00000000	          0.00000000	         -0.10123038	          0.00000000	
          1.21200000	          0.00000000	          0.00000000	          0.00000000	          0.00000000	          0.00000000	          0.00000000	         18.19406725	        284.45524476	        -10.74718697	         -0.38482820	          0.00000000	         -0.09305252	          0.00000000	          0.00000000	          0.00000000	          0.00000000	         -0.06654142	          0.00000000	
          1.21300000	          0.00000000	          0.00000000	          0.00000000	          0.00000000	          0.00000000	          0.00000000	         20.83398194	        326.20212163	        -12.74795114	         -0.38483868	          0.00000000	         -0.09252119	          0.00000000	          0.00000000	          0.00000000	          0.00000000	         -0.02540864	          0.00000000	
          1.21400000	          0.00000000	          0.00000000	          0.00000000	          0.00000000	          0.00000000	          0.00000000	         21.97210600	        352.65289455	        -15.67262819	         -0.38484722	          0.00000000	         -0.09212472	          0.00000000	          0.00000000	          0.00000000	          0.00000000	          0.00966278	          0.00000000	
          1.21500000	          0.00000000	          0.00000000	          0.00000000	          0.00000000	          0.00000000	          0.00000000	         21.29939193	        364.65213740	        -19.41983240	         -0.38477003	          0.00000000	         -0.09184407	          0.00000000	          0.00000000	          0.00000000	          0.00000000	          0.02918185	          0.00000000	
          1.21600000	          0.00000000	          0.00000000	          0.00000000	          0.00000000	          0.00000000	          0.00000000	         18.92763608	        365.89957287	        -23.64782269	         -0.38452203	          0.00000000	         -0.09164473	          0.00000000	          0.00000000	          0.00000000	          0.00000000	          0.03049281	          0.00000000	
          1.21700000	          0.00000000	          0.00000000	          0.00000000	          0.00000000	          0.00000000	          0.00000000	         15.24619867	        361.02001259	        -27.91925198	         -0.38405567	          0.00000000	         -0.09147500	          0.00000000	          0.00000000	          0.00000000	          0.00000000	          0.01813833	          0.00000000	
